<svg width="58" height="58" viewBox="0 0 58 58" fill="none" xmlns="http://www.w3.org/2000/svg">
<g filter="url(#filter0_d_493_143)">
<circle cx="29" cy="25" r="25" fill="#756EF3"/>
<path d="M29.75 17C29.75 16.5858 29.4142 16.25 29 16.25C28.5858 16.25 28.25 16.5858 28.25 17L28.25 24.25H21C20.5858 24.25 20.25 24.5858 20.25 25C20.25 25.4142 20.5858 25.75 21 25.75H28.25V33C28.25 33.4142 28.5858 33.75 29 33.75C29.4142 33.75 29.75 33.4142 29.75 33V25.75H37C37.4142 25.75 37.75 25.4142 37.75 25C37.75 24.5858 37.4142 24.25 37 24.25H29.75L29.75 17Z" fill="white"/>
</g>
<defs>
<filter id="filter0_d_493_143" x="0" y="0" width="58" height="58" filterUnits="userSpaceOnUse" color-interpolation-filters="sRGB">
<feFlood flood-opacity="0" result="BackgroundImageFix"/>
<feColorMatrix in="SourceAlpha" type="matrix" values="0 0 0 0 0 0 0 0 0 0 0 0 0 0 0 0 0 0 127 0" result="hardAlpha"/>
<feOffset dy="4"/>
<feGaussianBlur stdDeviation="2"/>
<feComposite in2="hardAlpha" operator="out"/>
<feColorMatrix type="matrix" values="0 0 0 0 0 0 0 0 0 0 0 0 0 0 0 0 0 0 0.25 0"/>
<feBlend mode="normal" in2="BackgroundImageFix" result="effect1_dropShadow_493_143"/>
<feBlend mode="normal" in="SourceGraphic" in2="effect1_dropShadow_493_143" result="shape"/>
</filter>
</defs>
</svg>
