<svg width="52" height="52" viewBox="0 0 52 52" fill="none" xmlns="http://www.w3.org/2000/svg">
<path d="M13 47.6667C11.1944 47.6667 9.65972 47.0348 8.39583 45.7709C7.13194 44.507 6.5 42.9723 6.5 41.1667V10.8334C6.5 9.02782 7.13194 7.4931 8.39583 6.22921C9.65972 4.96532 11.1944 4.33337 13 4.33337H36.8333V39H13C12.3861 39 11.8715 39.2077 11.4563 39.623C11.041 40.0382 10.8333 40.5528 10.8333 41.1667C10.8333 41.7806 11.041 42.2952 11.4563 42.7105C11.8715 43.1257 12.3861 43.3334 13 43.3334H41.1667V8.66671H45.5V47.6667H13ZM19.5 34.6667H32.5V8.66671H19.5V34.6667ZM15.1667 34.6667V8.66671H13C12.3861 8.66671 11.8715 8.87435 11.4563 9.28962C11.041 9.7049 10.8333 10.2195 10.8333 10.8334V35.0459C11.1944 34.9375 11.5465 34.8473 11.8896 34.775C12.2326 34.7028 12.6028 34.6667 13 34.6667H15.1667Z" fill="#704AFF"/>
</svg>
