<svg width="57" height="53" viewBox="0 0 57 53" fill="none" xmlns="http://www.w3.org/2000/svg">
<path d="M11.875 48.5833C10.5687 48.5833 9.45052 48.1508 8.52031 47.2859C7.5901 46.421 7.125 45.3812 7.125 44.1666V13.25C7.125 12.0354 7.5901 10.9956 8.52031 10.1307C9.45052 9.26576 10.5687 8.83329 11.875 8.83329H14.25V4.41663H19V8.83329H38V4.41663H42.75V8.83329H45.125C46.4312 8.83329 47.5495 9.26576 48.4797 10.1307C49.4099 10.9956 49.875 12.0354 49.875 13.25V44.1666C49.875 45.3812 49.4099 46.421 48.4797 47.2859C47.5495 48.1508 46.4312 48.5833 45.125 48.5833H11.875ZM11.875 44.1666H45.125V22.0833H11.875V44.1666ZM11.875 17.6666H45.125V13.25H11.875V17.6666Z" fill="#704AFF"/>
</svg>
