<svg width="24" height="18" viewBox="0 0 24 18" fill="none" xmlns="http://www.w3.org/2000/svg">
<g id="Category">
<g id="Category_2">
<path id="Stroke 1" fill-rule="evenodd" clip-rule="evenodd" d="M3 4.67188C3 2.785 3.02811 2.15625 6.5 2.15625C9.97189 2.15625 10 2.785 10 4.67188C10 6.55875 10.0111 7.1875 6.5 7.1875C2.98893 7.1875 3 6.55875 3 4.67188Z" stroke="#848A94" stroke-width="1.5" stroke-linecap="round" stroke-linejoin="round"/>
<path id="Stroke 3" fill-rule="evenodd" clip-rule="evenodd" d="M14 4.67188C14 2.785 14.0281 2.15625 17.5 2.15625C20.9719 2.15625 21 2.785 21 4.67188C21 6.55875 21.0111 7.1875 17.5 7.1875C13.9889 7.1875 14 6.55875 14 4.67188Z" stroke="#848A94" stroke-width="1.5" stroke-linecap="round" stroke-linejoin="round"/>
<path id="Stroke 5" fill-rule="evenodd" clip-rule="evenodd" d="M3 12.5781C3 10.6913 3.02811 10.0625 6.5 10.0625C9.97189 10.0625 10 10.6913 10 12.5781C10 14.465 10.0111 15.0938 6.5 15.0938C2.98893 15.0938 3 14.465 3 12.5781Z" stroke="#848A94" stroke-width="1.5" stroke-linecap="round" stroke-linejoin="round"/>
<path id="Stroke 7" fill-rule="evenodd" clip-rule="evenodd" d="M14 12.5781C14 10.6913 14.0281 10.0625 17.5 10.0625C20.9719 10.0625 21 10.6913 21 12.5781C21 14.465 21.0111 15.0938 17.5 15.0938C13.9889 15.0938 14 14.465 14 12.5781Z" stroke="#848A94" stroke-width="1.5" stroke-linecap="round" stroke-linejoin="round"/>
</g>
</g>
</svg>
