<svg width="44" height="44" viewBox="0 0 44 44" fill="none" xmlns="http://www.w3.org/2000/svg">
<path d="M16.467 19.28C16.379 18.912 16.219 18.636 15.987 18.452C15.755 18.268 15.431 18.176 15.015 18.176C14.383 18.176 13.911 18.42 13.599 18.908C13.287 19.388 13.123 20.188 13.107 21.308C13.315 20.956 13.619 20.684 14.019 20.492C14.419 20.3 14.851 20.204 15.315 20.204C15.843 20.204 16.307 20.32 16.707 20.552C17.115 20.776 17.431 21.104 17.655 21.536C17.887 21.968 18.003 22.484 18.003 23.084C18.003 23.644 17.891 24.144 17.667 24.584C17.451 25.024 17.127 25.372 16.695 25.628C16.263 25.876 15.743 26 15.135 26C14.311 26 13.663 25.82 13.191 25.46C12.727 25.092 12.399 24.576 12.207 23.912C12.023 23.248 11.931 22.42 11.931 21.428C11.931 18.5 12.963 17.036 15.027 17.036C15.827 17.036 16.455 17.252 16.911 17.684C17.375 18.116 17.647 18.648 17.727 19.28H16.467ZM15.015 21.356C14.527 21.356 14.111 21.504 13.767 21.8C13.431 22.088 13.263 22.508 13.263 23.06C13.263 23.612 13.419 24.052 13.731 24.38C14.051 24.7 14.495 24.86 15.063 24.86C15.567 24.86 15.963 24.704 16.251 24.392C16.547 24.08 16.695 23.664 16.695 23.144C16.695 22.6 16.551 22.168 16.263 21.848C15.983 21.52 15.567 21.356 15.015 21.356ZM19.4622 21.512C19.4622 20.128 19.6942 19.048 20.1582 18.272C20.6302 17.488 21.4382 17.096 22.5822 17.096C23.7262 17.096 24.5302 17.488 24.9942 18.272C25.4662 19.048 25.7022 20.128 25.7022 21.512C25.7022 22.912 25.4662 24.008 24.9942 24.8C24.5302 25.584 23.7262 25.976 22.5822 25.976C21.4382 25.976 20.6302 25.584 20.1582 24.8C19.6942 24.008 19.4622 22.912 19.4622 21.512ZM24.3582 21.512C24.3582 20.864 24.3142 20.316 24.2262 19.868C24.1462 19.42 23.9782 19.056 23.7222 18.776C23.4662 18.488 23.0862 18.344 22.5822 18.344C22.0782 18.344 21.6982 18.488 21.4422 18.776C21.1862 19.056 21.0142 19.42 20.9262 19.868C20.8462 20.316 20.8062 20.864 20.8062 21.512C20.8062 22.184 20.8462 22.748 20.9262 23.204C21.0062 23.66 21.1742 24.028 21.4302 24.308C21.6942 24.588 22.0782 24.728 22.5822 24.728C23.0862 24.728 23.4662 24.588 23.7222 24.308C23.9862 24.028 24.1582 23.66 24.2382 23.204C24.3182 22.748 24.3582 22.184 24.3582 21.512ZM26.9337 19.364C26.9337 18.78 27.1017 18.324 27.4377 17.996C27.7817 17.66 28.2217 17.492 28.7577 17.492C29.2937 17.492 29.7297 17.66 30.0657 17.996C30.4097 18.324 30.5817 18.78 30.5817 19.364C30.5817 19.948 30.4097 20.408 30.0657 20.744C29.7297 21.08 29.2937 21.248 28.7577 21.248C28.2217 21.248 27.7817 21.08 27.4377 20.744C27.1017 20.408 26.9337 19.948 26.9337 19.364ZM34.2537 17.648L29.4657 26H28.1217L32.9097 17.648H34.2537ZM28.7577 18.32C28.2537 18.32 28.0017 18.668 28.0017 19.364C28.0017 20.068 28.2537 20.42 28.7577 20.42C28.9977 20.42 29.1817 20.336 29.3097 20.168C29.4457 19.992 29.5137 19.724 29.5137 19.364C29.5137 18.668 29.2617 18.32 28.7577 18.32ZM31.8177 24.272C31.8177 23.688 31.9857 23.232 32.3217 22.904C32.6657 22.568 33.1057 22.4 33.6417 22.4C34.1697 22.4 34.6017 22.568 34.9377 22.904C35.2817 23.232 35.4537 23.688 35.4537 24.272C35.4537 24.856 35.2817 25.316 34.9377 25.652C34.6017 25.988 34.1697 26.156 33.6417 26.156C33.1057 26.156 32.6657 25.988 32.3217 25.652C31.9857 25.316 31.8177 24.856 31.8177 24.272ZM33.6297 23.228C33.1257 23.228 32.8737 23.576 32.8737 24.272C32.8737 24.968 33.1257 25.316 33.6297 25.316C34.1337 25.316 34.3857 24.968 34.3857 24.272C34.3857 23.576 34.1337 23.228 33.6297 23.228Z" fill="#002055"/>
<circle cx="22" cy="22" r="20" stroke="#D1E2FE" stroke-width="4"/>
<mask id="path-3-inside-1_401_726" fill="white">
<path d="M22 1.99813C22 0.894591 22.8964 -0.00941558 23.9954 0.0906749C26.7759 0.343913 29.4892 1.12477 31.9878 2.39786C35.0812 3.97403 37.7577 6.25995 39.7984 9.06872C41.8391 11.8775 43.186 15.1294 43.7291 18.5584C44.2723 21.9875 43.9961 25.4965 42.9232 28.7984C41.8504 32.1003 40.0113 35.1014 37.5564 37.5563C35.1014 40.0113 32.1003 41.8504 28.7984 42.9232C25.4965 43.9961 21.9875 44.2723 18.5584 43.7291C15.7888 43.2905 13.1347 42.3274 10.7363 40.8979C9.78842 40.3329 9.59456 39.0746 10.2432 38.1819C10.8918 37.2891 12.1369 37.102 13.096 37.6478C14.9754 38.7172 17.0371 39.4421 19.1836 39.7821C21.9898 40.2266 24.8613 40.0006 27.5635 39.1226C30.2656 38.2446 32.7216 36.7396 34.7306 34.7306C36.7396 32.7216 38.2446 30.2656 39.1226 27.5635C40.0006 24.8613 40.2266 21.9898 39.7821 19.1836C39.3376 16.3774 38.2353 13.7162 36.5653 11.4177C34.8953 9.1191 32.705 7.24841 30.1735 5.95854C28.2371 4.9719 26.1431 4.34652 23.9941 4.10702C22.8973 3.98479 22 3.10166 22 1.99813Z"/>
</mask>
<path d="M22 1.99813C22 0.894591 22.8964 -0.00941558 23.9954 0.0906749C26.7759 0.343913 29.4892 1.12477 31.9878 2.39786C35.0812 3.97403 37.7577 6.25995 39.7984 9.06872C41.8391 11.8775 43.186 15.1294 43.7291 18.5584C44.2723 21.9875 43.9961 25.4965 42.9232 28.7984C41.8504 32.1003 40.0113 35.1014 37.5564 37.5563C35.1014 40.0113 32.1003 41.8504 28.7984 42.9232C25.4965 43.9961 21.9875 44.2723 18.5584 43.7291C15.7888 43.2905 13.1347 42.3274 10.7363 40.8979C9.78842 40.3329 9.59456 39.0746 10.2432 38.1819C10.8918 37.2891 12.1369 37.102 13.096 37.6478C14.9754 38.7172 17.0371 39.4421 19.1836 39.7821C21.9898 40.2266 24.8613 40.0006 27.5635 39.1226C30.2656 38.2446 32.7216 36.7396 34.7306 34.7306C36.7396 32.7216 38.2446 30.2656 39.1226 27.5635C40.0006 24.8613 40.2266 21.9898 39.7821 19.1836C39.3376 16.3774 38.2353 13.7162 36.5653 11.4177C34.8953 9.1191 32.705 7.24841 30.1735 5.95854C28.2371 4.9719 26.1431 4.34652 23.9941 4.10702C22.8973 3.98479 22 3.10166 22 1.99813Z" stroke="#756EF3" stroke-width="8" mask="url(#path-3-inside-1_401_726)"/>
</svg>
