<svg width="52" height="52" viewBox="0 0 52 52" fill="none" xmlns="http://www.w3.org/2000/svg">
<path d="M4.33325 47.6667V8.66667C4.33325 7.475 4.75756 6.45486 5.60617 5.60625C6.45478 4.75764 7.47492 4.33333 8.66658 4.33333H30.5499C30.4055 5.05556 30.3333 5.77778 30.3333 6.5C30.3333 7.22222 30.4055 7.94444 30.5499 8.66667H8.66658V37.1042L11.1583 34.6667H43.3332V17.1167C44.1638 16.9361 44.9402 16.6924 45.6624 16.3854C46.3846 16.0785 47.0527 15.6722 47.6666 15.1667V34.6667C47.6666 35.8583 47.2423 36.8785 46.3937 37.7271C45.5451 38.5757 44.5249 39 43.3332 39H12.9999L4.33325 47.6667ZM41.1666 13C39.361 13 37.8263 12.3681 36.5624 11.1042C35.2985 9.84028 34.6666 8.30556 34.6666 6.5C34.6666 4.69444 35.2985 3.15972 36.5624 1.89583C37.8263 0.631944 39.361 0 41.1666 0C42.9721 0 44.5069 0.631944 45.7707 1.89583C47.0346 3.15972 47.6666 4.69444 47.6666 6.5C47.6666 8.30556 47.0346 9.84028 45.7707 11.1042C44.5069 12.3681 42.9721 13 41.1666 13Z" fill="#704AFF"/>
</svg>
