<svg width="42" height="42" viewBox="0 0 42 42" fill="none" xmlns="http://www.w3.org/2000/svg">
<circle cx="21" cy="21" r="20.5" fill="white" stroke="#E9F1FF"/>
<path fill-rule="evenodd" clip-rule="evenodd" d="M13.5 16.4167C13.5 14.229 13.5234 13.5 16.4167 13.5C19.3099 13.5 19.3333 14.229 19.3333 16.4167C19.3333 18.6043 19.3426 19.3333 16.4167 19.3333C13.4908 19.3333 13.5 18.6043 13.5 16.4167Z" stroke="#002055" stroke-width="1.5" stroke-linecap="round" stroke-linejoin="round"/>
<path fill-rule="evenodd" clip-rule="evenodd" d="M22.6667 16.4167C22.6667 14.229 22.6901 13.5 25.5833 13.5C28.4766 13.5 28.5 14.229 28.5 16.4167C28.5 18.6043 28.5092 19.3333 25.5833 19.3333C22.6574 19.3333 22.6667 18.6043 22.6667 16.4167Z" stroke="#002055" stroke-width="1.5" stroke-linecap="round" stroke-linejoin="round"/>
<path fill-rule="evenodd" clip-rule="evenodd" d="M13.5 25.5834C13.5 23.3957 13.5234 22.6667 16.4167 22.6667C19.3099 22.6667 19.3333 23.3957 19.3333 25.5834C19.3333 27.7711 19.3426 28.5001 16.4167 28.5001C13.4908 28.5001 13.5 27.7711 13.5 25.5834Z" stroke="#002055" stroke-width="1.5" stroke-linecap="round" stroke-linejoin="round"/>
<path fill-rule="evenodd" clip-rule="evenodd" d="M22.6667 25.5834C22.6667 23.3957 22.6901 22.6667 25.5833 22.6667C28.4766 22.6667 28.5 23.3957 28.5 25.5834C28.5 27.7711 28.5092 28.5001 25.5833 28.5001C22.6574 28.5001 22.6667 27.7711 22.6667 25.5834Z" stroke="#002055" stroke-width="1.5" stroke-linecap="round" stroke-linejoin="round"/>
</svg>
